<?xml version="1.0" encoding="UTF-8"?>
<!DOCTYPE svg PUBLIC "-//W3C//DTD SVG 1.1//EN" "http://www.w3.org/Graphics/SVG/1.1/DTD/svg11.dtd">
<svg version="1.1" xmlns="http://www.w3.org/2000/svg" xmlns:xlink="http://www.w3.org/1999/xlink" x="0" y="0" width="792" height="612" viewBox="0, 0, 792, 612">
  <defs>
    <clipPath id="Clip_1">
      <path d="M24.528,579.384 L149.064,579.384 L149.064,588.096 L24.528,588.096 z"/>
    </clipPath>
  </defs>
  <g id="Layer_1">
    <path d="M153.374,508.013 C153.374,498.857 149.534,491.177 140.969,486.747 C149.829,480.84 152.192,470.798 152.192,461.346 L152.192,407.296 C152.192,382.191 134.766,373.035 119.408,373.035 L88.1,373.035 L88.1,538.139 L104.049,538.139 L104.049,495.903 L125.315,495.903 C133.29,495.903 137.72,500.924 137.72,508.013 L137.72,538.139 L153.374,538.139 L153.374,508.013 z M104.049,386.917 L119.408,386.917 C130.041,386.917 137.129,394.596 137.129,407.296 L137.129,461.346 C137.129,474.637 127.087,482.021 119.408,482.021 L104.049,482.021 L104.049,386.917 z M172.57,538.139 L187.928,538.139 L187.928,373.035 L172.57,373.035 z M260.29,538.139 L275.649,538.139 L249.953,373.035 L233.118,373.035 L207.717,538.139 L223.075,538.139 L229.869,495.017 L253.793,495.017 L253.793,494.722 L260.29,538.139 z M231.05,482.021 L234.89,457.507 L241.683,404.343 L248.181,457.507 L251.725,482.021 L231.05,482.021 z M306.363,524.257 L306.363,373.035 L291.005,373.035 L291.005,538.139 L341.806,538.139 L341.806,524.257 L306.363,524.257 z M402.646,373.035 L342.688,373.035 L342.688,386.621 L365.431,386.621 L365.431,538.139 L380.199,538.139 L380.199,386.621 L402.646,386.621 L402.646,373.035 z M448.13,539.911 C469.986,539.911 480.914,522.485 480.914,504.173 L480.914,406.705 C480.914,387.803 468.509,371.558 448.13,371.558 C425.978,371.558 414.459,388.393 414.459,406.705 L414.459,504.468 C414.459,523.962 427.16,539.911 448.13,539.911 z M448.13,385.44 C460.535,385.44 465.556,396.073 465.556,406.705 L465.556,504.173 C465.556,515.987 460.239,525.439 448.13,525.439 C436.02,525.439 430.113,515.692 430.113,504.468 L430.113,406.705 C430.113,394.891 436.02,385.44 448.13,385.44 z M620.614,407.001 C620.614,378.056 603.188,373.035 586.353,373.035 L554.455,373.035 L554.455,538.139 L586.353,538.139 C594.328,538.139 620.614,536.958 620.614,504.468 L620.614,407.001 z M605.551,504.468 C605.551,520.122 595.214,523.667 586.353,523.667 L570.109,523.667 L570.109,386.917 L586.353,386.917 C596.986,386.917 604.961,389.279 605.551,407.001 L605.551,504.468 z M672.005,539.911 C694.452,539.911 705.085,523.667 705.085,504.468 L705.085,491.177 C705.38,475.523 690.317,467.253 676.14,458.983 C662.849,451.009 654.874,445.397 654.284,436.832 L654.284,406.705 C654.284,392.528 661.077,386.03 670.233,386.03 C681.456,386.03 685.887,395.186 685.887,406.41 L685.887,428.857 L700.655,428.857 L700.655,406.115 C700.655,386.326 689.726,371.853 670.233,371.853 C648.672,371.853 638.334,386.917 638.334,406.705 L638.334,437.422 C638.63,453.667 652.807,462.232 671.414,473.161 C682.343,479.658 690.022,484.089 690.022,492.063 L690.022,504.468 C690.022,516.578 684.115,526.029 672.005,526.029 C659.6,526.029 653.398,515.692 653.988,504.173 L653.988,487.042 L638.334,487.042 L638.334,504.173 C638.039,525.734 652.512,539.911 672.005,539.911" fill="#802520"/>
    <path d="M26.196,588.084 C27.3,588.084 27.804,587.184 27.804,586.32 L27.804,585.6 L27.192,585.6 L27.192,586.32 C27.192,586.944 26.88,587.508 26.196,587.508 C25.512,587.508 25.164,586.908 25.164,586.308 L25.164,581.304 C25.164,580.548 25.596,580.092 26.196,580.092 C26.856,580.092 27.204,580.476 27.204,581.304 L27.204,582.06 L27.804,582.06 L27.804,581.292 C27.804,580.176 27.168,579.516 26.184,579.516 C25.176,579.516 24.528,580.224 24.528,581.304 L24.528,586.296 C24.528,587.28 25.152,588.084 26.196,588.084 z" fill="#FFFFFE"/>
    <path d="M29.148,588 L31.152,579.54 L30.588,579.54 L28.56,588 z" fill="#FFFFFE"/>
    <path d="M33.636,588.084 C34.704,588.084 35.232,587.22 35.232,586.332 L35.232,581.28 C35.232,580.344 34.644,579.528 33.636,579.528 C32.532,579.528 31.968,580.368 31.968,581.268 L31.968,586.344 C31.968,587.292 32.592,588.084 33.636,588.084 z M33.636,580.092 C33.792,580.092 33.936,580.128 34.056,580.188 L32.784,587.064 C32.664,586.86 32.604,586.608 32.604,586.344 L32.604,581.268 C32.604,580.62 32.928,580.092 33.636,580.092 z M34.62,581.28 L34.62,586.332 C34.62,586.968 34.296,587.508 33.636,587.508 C33.456,587.508 33.312,587.484 33.18,587.424 L34.428,580.548 C34.56,580.764 34.62,581.028 34.62,581.28 z" fill="#FFFFFE"/>
    <path d="M61.343,581.256 L61.691,583.824 L62.351,587.868 L63.023,587.868 L63.695,583.824 L64.103,581.244 L64.127,581.244 L64.115,583.884 L64.283,588 L64.919,588 L64.595,579.588 L63.815,579.588 L63.071,584.412 L62.711,586.836 L62.387,584.412 L61.655,579.588 L60.839,579.588 L60.515,588 L61.127,588 L61.283,583.884 L61.319,581.256 z" fill="#FFFFFE"/>
    <path d="M66.155,588 L68.159,579.54 L67.595,579.54 L65.567,588 z" fill="#FFFFFE"/>
    <path d="M72.035,581.652 C72.035,580.56 71.591,579.576 70.439,579.576 C69.263,579.576 68.795,580.632 68.795,581.64 L68.795,582.816 C68.795,583.8 69.215,584.928 70.367,584.928 C70.847,584.928 71.255,584.628 71.435,584.208 L71.435,586.332 C71.435,586.98 71.087,587.484 70.391,587.484 C69.755,587.484 69.419,586.968 69.419,586.32 L69.419,585.912 L68.807,585.912 L68.807,586.32 C68.807,587.256 69.407,588.072 70.391,588.072 C71.423,588.072 72.035,587.328 72.035,586.332 z M71.411,582.804 C71.411,583.44 71.135,584.352 70.439,584.352 C69.587,584.352 69.419,583.416 69.419,582.816 L69.419,581.64 C69.419,580.92 69.707,580.152 70.439,580.152 C71.207,580.152 71.411,580.932 71.411,581.652 z" fill="#FFFFFE"/>
    <path d="M74.843,588.084 C75.911,588.084 76.439,587.22 76.439,586.332 L76.439,581.28 C76.439,580.344 75.851,579.528 74.843,579.528 C73.739,579.528 73.175,580.368 73.175,581.268 L73.175,586.344 C73.175,587.292 73.799,588.084 74.843,588.084 z M74.843,580.092 C74.999,580.092 75.143,580.128 75.263,580.188 L73.991,587.064 C73.871,586.86 73.811,586.608 73.811,586.344 L73.811,581.268 C73.811,580.62 74.135,580.092 74.843,580.092 z M75.827,581.28 L75.827,586.332 C75.827,586.968 75.503,587.508 74.843,587.508 C74.663,587.508 74.519,587.484 74.387,587.424 L75.635,580.548 C75.767,580.764 75.827,581.028 75.827,581.28 z" fill="#FFFFFE"/>
    <path d="M99.37,579.588 C99.13,580.584 98.854,581.628 98.59,582.66 L98.098,584.952 L97.618,582.672 L96.826,579.588 L96.19,579.588 L97.786,585.9 L97.786,588 L98.41,588 L98.41,585.9 L100.03,579.588 z" fill="#FFFFFE"/>
    <path d="M101.014,588 L103.018,579.54 L102.454,579.54 L100.426,588 z" fill="#FFFFFE"/>
    <path d="M106.894,581.652 C106.894,580.56 106.45,579.576 105.298,579.576 C104.122,579.576 103.654,580.632 103.654,581.64 L103.654,582.816 C103.654,583.8 104.074,584.928 105.226,584.928 C105.706,584.928 106.114,584.628 106.294,584.208 L106.294,586.332 C106.294,586.98 105.946,587.484 105.25,587.484 C104.614,587.484 104.278,586.968 104.278,586.32 L104.278,585.912 L103.666,585.912 L103.666,586.32 C103.666,587.256 104.266,588.072 105.25,588.072 C106.282,588.072 106.894,587.328 106.894,586.332 z M106.27,582.804 C106.27,583.44 105.994,584.352 105.298,584.352 C104.446,584.352 104.278,583.416 104.278,582.816 L104.278,581.64 C104.278,580.92 104.566,580.152 105.298,580.152 C106.066,580.152 106.27,580.932 106.27,581.652 z" fill="#FFFFFE"/>
    <path d="M109.702,588.084 C110.77,588.084 111.298,587.22 111.298,586.332 L111.298,581.28 C111.298,580.344 110.71,579.528 109.702,579.528 C108.598,579.528 108.034,580.368 108.034,581.268 L108.034,586.344 C108.034,587.292 108.658,588.084 109.702,588.084 z M109.702,580.092 C109.858,580.092 110.002,580.128 110.122,580.188 L108.85,587.064 C108.73,586.86 108.67,586.608 108.67,586.344 L108.67,581.268 C108.67,580.62 108.994,580.092 109.702,580.092 z M110.686,581.28 L110.686,586.332 C110.686,586.968 110.362,587.508 109.702,587.508 C109.522,587.508 109.378,587.484 109.246,587.424 L110.494,580.548 C110.626,580.764 110.686,581.028 110.686,581.28 z" fill="#FFFFFE"/>
    <path d="M138.056,579.6 L137.372,579.6 L135.728,583.392 L135.164,584.784 L135.164,579.6 L134.528,579.6 L134.528,588 L135.164,588 L135.164,585.984 L135.392,585.552 L137.336,588 L138.128,588 C136.436,585.828 136.052,585.348 135.728,584.916 z" fill="#FFFFFE"/>
    <path d="M138.968,588 L140.972,579.54 L140.408,579.54 L138.38,588 z" fill="#FFFFFE"/>
    <path d="M144.92,585.18 L144.356,585.18 L144.356,579.936 L143.744,579.936 L143.744,585.18 L142.148,585.18 L143.48,579.384 L142.88,579.384 L141.512,585.276 L141.512,585.708 L143.744,585.708 L143.744,588 L144.356,588 L144.356,585.708 L144.92,585.708 z" fill="#FFFFFE"/>
    <g clip-path="url(#Clip_1)">
      <path d="M147.481,583.644 C147.121,583.644 146.689,583.836 146.449,584.16 L146.449,580.164 L148.873,580.164 L148.873,579.612 L145.825,579.612 L145.825,585.084 L146.437,585.084 C146.569,584.58 147.073,584.208 147.481,584.208 C148.117,584.208 148.453,584.568 148.453,585.396 L148.453,586.392 C148.453,587.028 148.141,587.52 147.481,587.52 C146.821,587.52 146.449,587.028 146.449,586.392 L146.449,585.84 L145.825,585.84 L145.825,586.392 C145.825,587.328 146.401,588.096 147.481,588.096 C148.525,588.096 149.065,587.328 149.065,586.392 L149.065,585.396 C149.065,584.184 148.441,583.644 147.481,583.644 z" fill="#FFFFFE"/>
    </g>
    <path d="M757.706,203.698 L757.706,107.464 C757.706,107.464 757.706,37.456 687.698,37.456 L104.302,37.456 C104.302,37.456 34.294,37.456 34.294,107.464 L34.294,193.545 L344.161,103.4 L344.161,89.542 L333.86,89.542 L333.86,73.705 L380.05,59.847 L411.788,59.847 L455.814,73.705 L455.814,85.583 L443.851,85.583 L443.851,101.42 L757.706,203.698 z M49.321,283.476 L83.449,269.635 C83.449,269.635 91.033,222.839 66.385,222.18 C41.737,221.521 47.89,281.498 49.321,283.476 z M100.014,263.849 L134.142,250.008 C134.142,250.008 141.726,203.212 117.078,202.553 C92.43,201.894 98.583,261.872 100.014,263.849 z M150.707,248.239 L184.835,234.398 C184.835,234.398 192.419,187.602 167.771,186.943 C143.123,186.284 149.275,246.262 150.707,248.239 z M201.4,228.613 L235.527,214.772 C235.527,214.772 243.111,167.976 218.464,167.317 C193.816,166.657 199.968,226.635 201.4,228.613 z M252.092,213.002 L286.22,199.161 C286.22,199.161 293.804,152.365 269.156,151.706 C244.508,151.047 250.661,211.025 252.092,213.002 z M302.785,198.078 L342.167,190.505 C342.167,190.505 344.497,137.441 319.849,136.781 C295.201,136.122 301.354,196.1 302.785,198.078 z M362.604,198.424 L429.396,198.424 L429.396,111.318 C429.396,111.318 428.816,110.527 427.744,109.248 C423.987,96.386 411.219,86.9 396,86.9 C381.064,86.9 368.472,96.032 364.458,108.53 C363.838,109.427 363.22,110.346 362.604,111.318 L362.604,198.424 z M450.507,188.525 L489.889,198.078 C491.321,196.101 497.473,136.122 472.825,136.782 C448.177,137.441 450.507,188.525 450.507,188.525 z M506.454,199.161 L540.582,213.002 C542.013,211.025 548.166,151.047 523.518,151.706 C498.87,152.365 506.454,199.161 506.454,199.161 z M557.146,214.772 L591.274,228.613 C592.706,226.635 598.858,166.658 574.21,167.317 C549.563,167.976 557.146,214.772 557.146,214.772 z M151.613,350.856 L635.796,350.856 C614.91,320.173 548.081,241.204 411.788,238.017 C268.487,234.666 176.498,323.484 151.613,350.856 z M607.839,234.398 L641.967,248.239 C643.399,246.262 649.551,186.284 624.903,186.943 C600.255,187.602 607.839,234.398 607.839,234.398 z M658.532,250.009 L692.66,263.85 C694.091,261.872 700.244,201.894 675.596,202.553 C650.948,203.212 658.532,250.009 658.532,250.009 z M709.225,269.635 L743.353,283.476 C744.784,281.499 750.937,221.521 726.289,222.18 C701.641,222.839 709.225,269.635 709.225,269.635" fill="#802520"/>
  </g>
</svg>
